<svg id="svg" version="1.1" xmlns="http://www.w3.org/2000/svg" xmlns:xlink="http://www.w3.org/1999/xlink" width="400" height="63.15789473684211" viewBox="0, 0, 400,63.15789473684211"><g id="svgg"><path id="path0" d="M98.667 39.528 C 98.667 39.589,98.760 39.682,98.875 39.735 C 98.990 39.787,98.896 39.780,98.667 39.720 C 97.596 39.435,97.421 39.613,97.732 40.667 C 97.822 40.971,97.810 41.017,97.687 40.838 C 97.404 40.427,97.404 40.413,97.469 51.875 L 97.532 63.000 200.099 63.000 L 302.667 63.000 302.667 51.532 C 302.667 39.058,302.690 39.362,301.769 39.593 C 301.428 39.679,301.362 39.749,301.526 39.853 C 301.649 39.931,301.675 39.995,301.583 39.995 C 301.492 39.995,301.304 39.922,301.167 39.833 C 301.000 39.726,300.986 39.671,301.125 39.669 C 301.240 39.668,301.333 39.610,301.333 39.542 C 301.333 39.473,255.733 39.417,200.000 39.417 C 144.267 39.417,98.667 39.467,98.667 39.528 M302.333 40.000 C 302.470 40.255,302.460 40.333,302.292 40.333 C 302.170 40.333,302.071 40.183,302.071 40.000 C 302.071 39.817,302.090 39.667,302.113 39.667 C 302.136 39.667,302.235 39.817,302.333 40.000 " stroke="none" fill="#742cb4" fill-rule="evenodd"></path><path id="path1" d="M0.000 11.833 L 0.000 23.667 200.000 23.667 L 400.000 23.667 400.000 11.833 L 400.000 0.000 200.000 0.000 L 0.000 0.000 0.000 11.833 " stroke="none" fill="#040404" fill-rule="evenodd"></path><path id="path2" d="M150.625 39.458 C 177.781 39.482,222.219 39.482,249.375 39.458 C 276.531 39.435,254.313 39.416,200.000 39.416 C 145.688 39.416,123.469 39.435,150.625 39.458 M301.194 39.646 C 301.018 39.758,301.032 39.810,301.260 39.897 C 301.418 39.958,301.587 39.969,301.635 39.921 C 301.683 39.873,301.616 39.828,301.486 39.822 C 301.347 39.815,301.386 39.751,301.583 39.667 C 301.803 39.572,301.832 39.520,301.667 39.514 C 301.529 39.509,301.317 39.569,301.194 39.646 M97.412 53.167 C 97.412 58.621,97.433 60.852,97.458 58.125 C 97.484 55.398,97.484 50.935,97.458 48.208 C 97.433 45.481,97.412 47.712,97.412 53.167 " stroke="none" fill="#78188c" fill-rule="evenodd"></path><path id="path3" d="" stroke="none" fill="#401830" fill-rule="evenodd"></path><path id="path4" d="" stroke="none" fill="#041834" fill-rule="evenodd"></path></g></svg>