<svg id="svg" version="1.1" xmlns="http://www.w3.org/2000/svg" xmlns:xlink="http://www.w3.org/1999/xlink" width="400" height="63.15789473684211" viewBox="0, 0, 400,63.15789473684211"><g id="svgg"><path id="path0" d="M99.375 39.458 L -0.000 39.500 -0.000 51.250 L 0.000 63.000 101.333 63.000 L 202.667 63.000 202.667 51.532 C 202.667 39.058,202.690 39.362,201.769 39.593 C 201.428 39.679,201.362 39.749,201.526 39.853 C 201.649 39.931,201.675 39.995,201.583 39.995 C 201.492 39.995,201.304 39.922,201.167 39.833 C 201.000 39.726,200.986 39.671,201.125 39.669 C 201.240 39.668,201.333 39.592,201.333 39.500 C 201.333 39.400,200.819 39.350,200.042 39.375 C 199.331 39.398,154.031 39.435,99.375 39.458 M202.333 40.000 C 202.470 40.255,202.460 40.333,202.292 40.333 C 202.170 40.333,202.071 40.183,202.071 40.000 C 202.071 39.817,202.090 39.667,202.113 39.667 C 202.136 39.667,202.235 39.817,202.333 40.000 " stroke="none" fill="#742cb4" fill-rule="evenodd"></path><path id="path1" d="M0.000 11.833 L 0.000 23.667 200.000 23.667 L 400.000 23.667 400.000 11.833 L 400.000 0.000 200.000 0.000 L 0.000 0.000 0.000 11.833 " stroke="none" fill="#040404" fill-rule="evenodd"></path><path id="path2" d="M49.625 39.458 C 76.965 39.482,121.702 39.482,149.042 39.458 C 176.381 39.435,154.012 39.416,99.333 39.416 C 44.654 39.416,22.285 39.435,49.625 39.458 M201.194 39.646 C 201.018 39.758,201.032 39.810,201.260 39.897 C 201.418 39.958,201.587 39.969,201.635 39.921 C 201.683 39.873,201.616 39.828,201.486 39.822 C 201.347 39.815,201.386 39.751,201.583 39.667 C 201.803 39.572,201.832 39.520,201.667 39.514 C 201.529 39.509,201.317 39.569,201.194 39.646 " stroke="none" fill="#78188c" fill-rule="evenodd"></path><path id="path3" d="" stroke="none" fill="#401830" fill-rule="evenodd"></path><path id="path4" d="" stroke="none" fill="#041834" fill-rule="evenodd"></path></g></svg>