<svg id="svg" version="1.1" xmlns="http://www.w3.org/2000/svg" xmlns:xlink="http://www.w3.org/1999/xlink" width="400" height="63.15789473684211" viewBox="0, 0, 400,63.15789473684211"><g id="svgg"><path id="path0" d="M198.667 39.460 C 198.667 39.559,198.760 39.682,198.875 39.735 C 198.990 39.787,198.896 39.780,198.667 39.720 C 197.596 39.435,197.421 39.613,197.732 40.667 C 197.822 40.971,197.810 41.017,197.687 40.838 C 197.404 40.427,197.404 40.413,197.469 51.875 L 197.532 63.000 298.766 63.000 L 400.000 63.000 400.000 51.250 L 400.000 39.500 301.360 39.500 C 247.107 39.500,201.807 39.451,200.693 39.391 C 199.297 39.316,198.667 39.338,198.667 39.460 " stroke="none" fill="#742cb4" fill-rule="evenodd"></path><path id="path1" d="M0.000 11.833 L 0.000 23.667 200.000 23.667 L 400.000 23.667 400.000 11.833 L 400.000 0.000 200.000 0.000 L 0.000 0.000 0.000 11.833 " stroke="none" fill="#040404" fill-rule="evenodd"></path><path id="path2" d="M250.958 39.458 C 278.298 39.482,323.035 39.482,350.375 39.458 C 377.715 39.435,355.346 39.416,300.667 39.416 C 245.987 39.416,223.619 39.435,250.958 39.458 M197.412 53.167 C 197.412 58.621,197.433 60.852,197.458 58.125 C 197.484 55.398,197.484 50.935,197.458 48.208 C 197.433 45.481,197.412 47.712,197.412 53.167 " stroke="none" fill="#78188c" fill-rule="evenodd"></path><path id="path3" d="" stroke="none" fill="#401830" fill-rule="evenodd"></path><path id="path4" d="" stroke="none" fill="#041834" fill-rule="evenodd"></path></g></svg>